<?xml version="1.0" encoding="UTF-8" standalone="no"?>
<svg
   xmlns:dc="http://purl.org/dc/elements/1.1/"
   xmlns:cc="http://creativecommons.org/ns#"
   xmlns:rdf="http://www.w3.org/1999/02/22-rdf-syntax-ns#"
   xmlns:svg="http://www.w3.org/2000/svg"
   xmlns="http://www.w3.org/2000/svg"
   xmlns:sodipodi="http://sodipodi.sourceforge.net/DTD/sodipodi-0.dtd"
   xmlns:inkscape="http://www.inkscape.org/namespaces/inkscape"
   enable-background="new 0 0 32 32"
   height="32px"
   id="svg2"
   version="1.1"
   viewBox="0 0 32 32"
   width="32px"
   x="0px"
   xml:space="preserve"
   y="0px"
   inkscape:version="0.48.4 r9939"
   sodipodi:docname="add-document.svg"><metadata
     id="metadata3017"><rdf:RDF><cc:Work
         rdf:about=""><dc:format>image/svg+xml</dc:format><dc:type
           rdf:resource="http://purl.org/dc/dcmitype/StillImage" /><dc:title></dc:title></cc:Work></rdf:RDF></metadata><defs
     id="defs3015" /><sodipodi:namedview
     pagecolor="#ffffff"
     bordercolor="#666666"
     borderopacity="1"
     objecttolerance="10"
     gridtolerance="10"
     guidetolerance="10"
     inkscape:pageopacity="0"
     inkscape:pageshadow="2"
     inkscape:window-width="1920"
     inkscape:window-height="1028"
     id="namedview3013"
     showgrid="false"
     inkscape:zoom="23.995005"
     inkscape:cx="9.5057839"
     inkscape:cy="16.007137"
     inkscape:window-x="1912"
     inkscape:window-y="-8"
     inkscape:window-maximized="1"
     inkscape:current-layer="plus_x5F_badge" /><g
     id="background"><rect
       fill="none"
       height="32"
       width="32"
       id="rect3004" /></g><g
     id="plus_x5F_badge"
     transform="matrix(1.7231638,0,0,1.7231638,-23.548023,-23.548023)"><path
       d="m 14,23 c 0,-4.973 4.027,-9 9,-9 l 0,0 c 4.971,0 8.998,4.027 9,9 l 0,0 c -0.002,4.971 -4.029,8.998 -9,9 l 0,0 c -4.973,-0.002 -9,-4.029 -9,-9 z m 1.147586,0.04837 c 0.009,3.799 4.051414,7.841414 7.852414,7.850414 l 0,0.04838 c 3.799,-0.009 8.034897,-4.123971 8.043897,-7.922971 L 31.019712,23 C 31.010712,19.199 26.799,15.1324 23,15.1234 l -0.02418,-0.02419 c -3.801005,0.009 -7.819234,4.148156 -7.828234,7.94916 z"
       id="path3007"
       inkscape:connector-curvature="0"
       sodipodi:nodetypes="cccccccccccccccc"
       style="fill:#ffffff" /><g
       id="g3009"><polygon
         points="22,22 18,22 18,24 22,24 22,28 24,28 24,24 28,24 28,22 24,22 24,18 22,18 "
         id="polygon3011"
         style="fill:#ffffff" /></g></g></svg>