<?xml version="1.0" encoding="UTF-8" standalone="no"?>
<svg
   xmlns:dc="http://purl.org/dc/elements/1.1/"
   xmlns:cc="http://creativecommons.org/ns#"
   xmlns:rdf="http://www.w3.org/1999/02/22-rdf-syntax-ns#"
   xmlns:svg="http://www.w3.org/2000/svg"
   xmlns="http://www.w3.org/2000/svg"
   xmlns:sodipodi="http://sodipodi.sourceforge.net/DTD/sodipodi-0.dtd"
   xmlns:inkscape="http://www.inkscape.org/namespaces/inkscape"
   enable-background="new 0 0 32 32"
   height="32px"
   id="svg2"
   version="1.1"
   viewBox="0 0 32 32"
   width="32px"
   x="0px"
   xml:space="preserve"
   y="0px"
   inkscape:version="0.48.4 r9939"
   sodipodi:docname="open.svg"><metadata
     id="metadata3076"><rdf:RDF><cc:Work
         rdf:about=""><dc:format>image/svg+xml</dc:format><dc:type
           rdf:resource="http://purl.org/dc/dcmitype/StillImage" /></cc:Work></rdf:RDF></metadata><defs
     id="defs3074" /><sodipodi:namedview
     pagecolor="#ffffff"
     bordercolor="#666666"
     borderopacity="1"
     objecttolerance="10"
     gridtolerance="10"
     guidetolerance="10"
     inkscape:pageopacity="0"
     inkscape:pageshadow="2"
     inkscape:window-width="831"
     inkscape:window-height="733"
     id="namedview3072"
     showgrid="false"
     inkscape:zoom="14.75"
     inkscape:cx="16"
     inkscape:cy="16"
     inkscape:window-x="1953"
     inkscape:window-y="188"
     inkscape:window-maximized="0"
     inkscape:current-layer="svg2" /><g
     id="background"><rect
       fill="none"
       height="32"
       width="32"
       id="rect3063" /></g><g
     id="plus_x5F_badge"
     transform="matrix(1.6779661,0,0,1.6779661,-22.576271,-22.508474)"
     style="fill:#ffffff"><path
       d="m 14,23 c 0,-4.973 4.027,-9 9,-9 l 0,0 c 4.971,0 8.998,4.027 9,9 l 0,0 c -0.002,4.971 -4.029,8.998 -9,9 l 0,0 c -4.973,-0.002 -9,-4.029 -9,-9 l 0,0 z m 2.115,0 c 0.009,3.799 3.084,6.874 6.885,6.883 l 0,0 C 26.799,29.874 29.874,26.799 29.883,23 l 0,0 C 29.874,19.199 26.799,16.124 23,16.115 l 0,0 C 19.199,16.124 16.124,19.199 16.115,23 l 0,0 z"
       id="path3066"
       inkscape:connector-curvature="0"
       style="fill:#ffffff" /><g
       id="g3068"
       style="fill:#ffffff"><polygon
         points="24,18 22,18 22,22 18,22 18,24 22,24 22,28 24,28 24,24 28,24 28,22 24,22 "
         id="polygon3070"
         style="fill:#ffffff" /></g></g></svg>