<?xml version="1.0" encoding="UTF-8" standalone="no"?>
<svg
   xmlns:dc="http://purl.org/dc/elements/1.1/"
   xmlns:cc="http://creativecommons.org/ns#"
   xmlns:rdf="http://www.w3.org/1999/02/22-rdf-syntax-ns#"
   xmlns:svg="http://www.w3.org/2000/svg"
   xmlns="http://www.w3.org/2000/svg"
   xmlns:sodipodi="http://sodipodi.sourceforge.net/DTD/sodipodi-0.dtd"
   xmlns:inkscape="http://www.inkscape.org/namespaces/inkscape"
   enable-background="new 0 0 24 24"
   height="24px"
   id="Layer_1"
   version="1.1"
   viewBox="0 0 24 24"
   width="24px"
   x="0px"
   xml:space="preserve"
   y="0px"
   inkscape:version="0.48.4 r9939"
   sodipodi:docname="closepage (1).svg"><metadata
     id="metadata3199"><rdf:RDF><cc:Work
         rdf:about=""><dc:format>image/svg+xml</dc:format><dc:type
           rdf:resource="http://purl.org/dc/dcmitype/StillImage" /><dc:title></dc:title></cc:Work></rdf:RDF></metadata><defs
     id="defs3197" /><sodipodi:namedview
     pagecolor="#ffffff"
     bordercolor="#666666"
     borderopacity="1"
     objecttolerance="10"
     gridtolerance="10"
     guidetolerance="10"
     inkscape:pageopacity="0"
     inkscape:pageshadow="2"
     inkscape:window-width="640"
     inkscape:window-height="480"
     id="namedview3195"
     showgrid="false"
     inkscape:zoom="9.8333333"
     inkscape:cx="12"
     inkscape:cy="12"
     inkscape:window-x="0"
     inkscape:window-y="0"
     inkscape:window-maximized="0"
     inkscape:current-layer="Layer_1" /><path
     d="m 20.160583,6.2114248 c 0.244765,0.2447654 0.244765,0.6459303 0,0.8906957 l -4.907819,4.9031275 c -0.244766,0.243984 -0.244766,0.645931 0,0.891478 l 4.905473,4.904691 c 0.244765,0.244766 0.244765,0.645931 0,0.891478 l -1.786865,1.780609 c -0.245548,0.243984 -0.647495,0.243984 -0.893042,0 l -4.903909,-4.903909 c -0.244766,-0.244765 -0.647495,-0.244765 -0.89226,0 l -4.9078196,4.900781 c -0.2447654,0.244766 -0.6474944,0.244766 -0.8922597,0 L 4.0975623,18.687421 c -0.2447654,-0.244765 -0.2447654,-0.64593 0,-0.891478 l 4.9093835,-4.902345 c 0.244765,-0.243983 0.244765,-0.64593 0,-0.891478 L 4.1014723,7.0966465 c -0.2455474,-0.2447653 -0.2455474,-0.6467123 0,-0.8914777 L 5.8875556,4.4237774 C 6.133885,4.1797941 6.53505,4.1797941 6.7805973,4.4245594 l 4.9031277,4.9031271 c 0.245547,0.245548 0.647494,0.245548 0.89226,7.82e-4 l 4.907819,-4.9007811 c 0.243983,-0.2439833 0.64593,-0.2439833 0.89226,0 l 1.784519,1.7837374 z"
     id="path3193"
     inkscape:connector-curvature="0" /></svg>