<svg width="512" height="512" xmlns="http://www.w3.org/2000/svg">
 <g>
  <title>Layer 1</title>
  <g id="svg_1">
   <path id="svg_2" d="m182.399994,280.899994l-90.399994,90.300018l-56,-56.100006l0,159.699982l159.699997,0l-56.899994,-56.799988l90.300003,-90.399994l-46.700012,-46.700012zm129.399994,-242.399994l56.899994,56.900002l-90.299988,90.299995l46.799988,46.800003l90.300018,-90.300003l56.099976,56.100006l0,-159.800003l-159.799988,0z" fill="#fff"/>
  </g>
  <g transform="rotate(-90.1914 250.8 257.65)" id="svg_3">
   <path id="svg_4" d="m179.399994,281.899994l-90.399994,90.300018l-56,-56.100006l0,159.699982l159.699997,0l-56.899994,-56.799988l90.300003,-90.399994l-46.700012,-46.700012zm129.399994,-242.399994l56.899994,56.900002l-90.299988,90.299995l46.799988,46.800003l90.300018,-90.300003l56.099976,56.100006l0,-159.800003l-159.799988,0z" fill="#fff"/>
  </g>
 </g>
</svg>